<svg width="101" height="80" viewBox="0 0 101 80" fill="none" xmlns="http://www.w3.org/2000/svg">
<g clip-path="url(#clip0_12_33)">
<path d="M4.88939 20.3726C18.3782 6.76585 33.722 3.96729 45.5595 6.14395C51.2532 7.19474 56.2176 8.83527 60.9784 11.8268C62.7369 12.9312 64.5382 14.1107 66.1252 15.4617C67.755 16.8449 69.2668 18.1531 70.8001 19.6756C74.1455 23.0103 75.8826 25.6909 77.7912 30.3016C77.7912 30.3016 72.6766 25.4336 63.7555 21.8094C57.5794 19.3004 51.3925 18.5712 44.0906 19.161C38.0431 19.6542 31.4274 21.863 26.8704 24.5222C24.0718 26.152 21.863 27.7175 19.3968 29.7011C17.574 31.1701 15.9871 33.0143 14.4323 34.7621C10.8832 38.7616 8.25623 44.4873 6.60498 49.5054C6.17608 50.8136 4.33183 57.5901 4.57844 58.6731C4.75 59.4558 7.26977 62.8334 7.96673 63.6912C8.84597 64.7742 9.60726 65.7392 10.5723 66.672C11.5373 67.5942 12.3629 68.6878 13.4459 69.5027L14.9792 70.8109C17.1344 72.505 19.3003 73.9418 21.7236 75.3465C26.42 78.0592 33.2288 79.8928 39.7051 79.9785C39.4478 79.8177 34.6334 78.3273 31.5453 76.3544C28.9076 74.671 26.7846 72.816 24.758 70.4999L23.7394 69.2347C23.3212 68.6771 22.9352 68.0874 22.5171 67.4869C17.9064 60.9784 19.2146 53.7944 19.0644 53.2261C18.732 52.765 18.4747 52.497 18.153 52.1324C17.1773 51.0173 16.5339 49.677 16.1801 48.1866C15.5475 45.5167 15.8906 43.8118 16.7591 41.5279L15.6011 41.0776L16.7377 38.204C17.7027 38.4292 20.6192 39.4371 20.6192 39.4371L23.2355 32.7356L25.7231 33.5719C25.7231 33.5719 23.5035 39.5657 23.2355 40.5844L26.2163 41.4958C26.5809 40.4021 28.8326 34.7835 28.8326 34.7835L31.4488 35.4698L28.8755 42.6002L32.7677 43.8762C32.7677 43.8762 31.985 45.9241 31.6954 46.8248L30.3337 46.4174C30.3337 46.4174 28.7468 49.559 28.1142 50.3418C27.4708 51.1352 26.9347 51.8215 26.1091 52.4434C24.7795 53.4406 23.2247 54.1053 21.4126 53.9123C21.359 58.7267 22.7744 63.5304 24.9296 66.8114C27.2778 70.3713 29.8083 72.6659 33.3038 74.9605C39.5979 79.0993 49.3982 78.9814 56.2605 75.443C56.9253 75.0999 58.6087 74.4565 58.909 73.856C52.8293 73.8024 46.7497 70.5428 42.9218 66.597C40.3484 63.9485 38.3219 60.646 37.0352 56.9897C36.5098 55.4993 36.2739 53.7837 36.0273 52.1968C35.2875 47.5111 37.0138 41.3778 39.0939 37.9681C40.1876 36.1667 41.6995 33.8936 43.2221 32.4139C44.2192 31.4381 45.2808 30.6447 46.4281 29.8083C53.0652 24.9511 63.0156 23.3963 70.7143 26.8597C76.6975 29.551 79.5603 33.6148 79.5603 33.6148C79.3352 31.0629 76.2793 24.1255 75.1105 22.0024C73.6523 19.3647 72.1726 17.0701 70.3927 14.7433L67.562 11.5373C66.8972 10.8725 66.3074 10.1112 65.5569 9.55368C65.2888 9.34995 65.2245 9.29634 65.01 9.08189C63.6268 7.6987 61.5467 6.31551 59.7453 5.23254C51.9608 0.589731 42.375 -0.868519 33.2609 0.482507C26.5594 1.47969 13.5531 5.65072 4.88939 20.3619" fill="#1A4079"/>
<path d="M1.20094 48.4761C1.54406 47.8756 3.40976 38.0646 8.9747 31.6097C10.2721 29.9156 12.8991 27.0205 14.411 25.6588C28.7254 12.7919 50.4812 10.5401 67.1224 20.8444C72.8911 24.7581 75.6789 27.428 75.6789 27.428C75.6789 27.428 73.4057 24.5758 69.5135 21.5306C53.2369 8.78167 35.384 7.44137 17.6599 18.196C16.8557 18.6892 15.9764 19.2896 15.2902 19.815L12.4273 22.0775C12.1485 22.3455 12.1807 22.3455 11.8805 22.56C3.58132 29.5081 0.193036 39.4585 0.193036 39.4585C-0.332362 40.8095 0.321705 47.243 1.21167 48.4761" fill="#1A4079"/>
<path d="M48.2616 35.7379C48.2616 35.7379 48.1758 35.7379 48.1329 35.7379H41.41V39.0296H48.1329C49.752 39.0296 51.0709 40.4021 51.0709 42.0962C51.0709 43.7904 49.752 45.1629 48.1329 45.1629H41.41V48.4546H48.1329C48.1329 48.4546 48.2187 48.4546 48.2616 48.4546C51.7786 48.4546 54.62 45.6025 54.62 42.0962C54.62 38.59 51.7678 35.7379 48.2616 35.7379Z" fill="#1B1C20"/>
<path d="M49.3124 40.7023H44.1764V43.4472H49.3124V40.7023Z" fill="#1B1C20"/>
<path d="M53.655 35.7379V39.0404H58.3621V48.4654H61.8147V39.0404H66.5219V48.4654H69.9745V39.0404V37.9681V35.7379H53.655Z" fill="#1B1C20"/>
<path d="M80.6434 35.6521H76.3115L71.2505 40.9061C70.6286 41.5494 70.6286 42.568 71.2505 43.2114L76.3115 48.4654H80.6434L74.7032 42.2892C74.5745 42.1606 74.5745 41.9569 74.7032 41.8282L80.6434 35.6521Z" fill="#1B1C20"/>
<path d="M53.0653 51.9716C53.0653 51.9716 53.0224 51.9716 53.0009 51.9716H51.7571C51.7571 51.9716 51.7142 51.9716 51.6928 51.9716C49.9665 51.9716 48.5726 53.3655 48.5726 55.0918C48.5726 56.8181 49.9665 58.212 51.6928 58.212C51.7142 58.212 51.7357 58.212 51.7571 58.212H52.379H53.0009C53.0009 58.212 53.0438 58.212 53.0653 58.212C54.7916 58.212 56.1855 56.8181 56.1855 55.0918C56.1855 53.3655 54.7916 51.9716 53.0653 51.9716ZM53.0009 56.5929H52.379H51.7571C50.9637 56.5929 50.3096 55.9174 50.3096 55.0918C50.3096 54.2662 50.953 53.5907 51.7571 53.5907H53.0009C53.7944 53.5907 54.4485 54.2662 54.4485 55.0918C54.4485 55.9174 53.8051 56.5929 53.0009 56.5929Z" fill="#D10013"/>
<path d="M88.0097 51.9716C88.0097 51.9716 87.9668 51.9716 87.9453 51.9716H86.7015C86.7015 51.9716 86.6586 51.9716 86.6372 51.9716C84.9109 51.9716 83.517 53.3655 83.517 55.0918C83.517 56.8181 84.9109 58.212 86.6372 58.212C86.6586 58.212 86.6801 58.212 86.7015 58.212H87.3234H87.9453C87.9453 58.212 87.9882 58.212 88.0097 58.212C89.736 58.212 91.1299 56.8181 91.1299 55.0918C91.1299 53.3655 89.736 51.9716 88.0097 51.9716ZM87.9453 56.5929H87.3234H86.7015C85.9081 56.5929 85.254 55.9174 85.254 55.0918C85.254 54.2662 85.8973 53.5907 86.7015 53.5907H87.9453C88.7388 53.5907 89.3929 54.2662 89.3929 55.0918C89.3929 55.9174 88.7495 56.5929 87.9453 56.5929Z" fill="#D10013"/>
<path d="M46.6104 51.9716H43.6403H41.8818V53.4513V58.212H43.6403V53.4513H46.6104V58.212H48.3688V53.4513V51.9716H46.6104Z" fill="#D10013"/>
<path d="M74.5638 51.9716H71.6044H69.8459V53.4513V58.212H71.6044V53.4513H74.5638V58.212H76.333V53.4513V51.9716H74.5638Z" fill="#D10013"/>
<path d="M68.838 51.9716H67.9909C67.8515 51.9716 67.7121 52.0359 67.6263 52.1539L64.7742 55.9067V51.9716H63.0157V57.5258C63.0157 57.9118 63.3266 58.2228 63.7019 58.2228H64.0236C64.4096 58.1584 64.7527 57.9654 64.9993 57.6652L67.755 54.2233V58.2228H69.5135V52.6685C69.5135 52.2825 69.2025 51.9716 68.8272 51.9716" fill="#D10013"/>
<path d="M60.9569 51.9716H57.44L56.9038 56.164C56.861 56.5072 56.5714 56.7645 56.2283 56.7645H55.9281V58.2227H56.6251C57.5686 58.2227 58.3514 57.5151 58.4479 56.5822L58.791 53.4513H60.9569V58.212H62.7154V51.9608H60.9569V51.9716Z" fill="#D10013"/>
<path d="M81.0615 51.9716H76.676V58.2227H78.4345V53.4727H81.0508C81.5011 53.4727 81.8657 53.8373 81.8657 54.2876C81.8657 54.738 81.5011 55.1025 81.0508 55.1025H79.0135V56.6037H81.0508C82.3267 56.6037 83.3668 55.5636 83.3668 54.2769C83.3668 52.9902 82.3267 51.9608 81.0508 51.9608" fill="#D10013"/>
<path d="M98.0244 52.8508H96.6519V51.9716H95.0007V52.8508H93.6282C92.3737 52.8508 91.355 53.8695 91.355 55.124C91.355 56.3785 92.3737 57.3971 93.6282 57.3971H94.3573V55.9818H93.6282C93.2422 55.8853 92.9634 55.5314 92.9634 55.1133C92.9634 54.6951 93.2529 54.352 93.6282 54.2447H95.0007V58.2013H96.6519V54.2447H98.0244C98.4104 54.3412 98.6892 54.6951 98.6892 55.1133C98.6892 55.5314 98.3997 55.8745 98.0244 55.9818H97.2953V57.3971H98.0244C99.2789 57.3971 100.298 56.3785 100.298 55.124C100.298 53.8695 99.2789 52.8508 98.0244 52.8508Z" fill="#D10013"/>
</g>
<defs>
<clipPath id="clip0_12_33">
<rect width="100.298" height="80" fill="white"/>
</clipPath>
</defs>
</svg>
